<svg xmlns="http://www.w3.org/2000/svg" viewBox="0 0 500 500"><g id="freepik--Floor--inject-131"><path id="freepik--floor--inject-131" d="M413.69,260.85c-90.45-52-237.11-52-327.56,0s-90.45,136.34,0,188.35,237.11,52,327.56,0S504.14,312.86,413.69,260.85Z" style="fill:#f5f5f5"></path></g><g id="freepik--Shadows--inject-131"><ellipse id="freepik--Shadow--inject-131" cx="401.83" cy="282.07" rx="26.59" ry="15.35" style="fill:#e0e0e0"></ellipse><path id="freepik--shadow--inject-131" d="M45.18,370.05l15.71,9.07a9.57,9.57,0,0,0,8.66,0l23.84-13.76c2.39-1.38,2.39-3.62,0-5l-15.72-9.07a9.57,9.57,0,0,0-8.66,0L45.18,365.05C42.79,366.43,42.79,368.67,45.18,370.05Z" style="fill:#e0e0e0"></path><polygon id="freepik--shadow--inject-131" points="339.66 347.76 388.41 375.91 453.4 338.38 404.65 310.24 339.66 347.76" style="fill:#e0e0e0"></polygon><path id="freepik--shadow--inject-131" d="M314.4,275.15c47,27.15,47,71.17,0,98.32s-123.27,27.15-170.29,0-47-71.17,0-98.32S267.38,248,314.4,275.15Z" style="fill:#e0e0e0"></path><path id="freepik--shadow--inject-131" d="M368.32,411.61a31.49,31.49,0,0,1,.16-5.51c.5-5.18.7-10.21,5-13.82A13.06,13.06,0,0,1,388.2,391c3.22,1.84,2.63,5.16.43,7.66,4.31-1.3,11.68-.87,14.9,1,4.12,2.36,3.72,6.9-.89,9.84-7.26,4.63-19.44,3.87-27.59,3Z" style="fill:#e0e0e0"></path><polygon id="freepik--shadow--inject-131" points="305.8 455.44 298.88 445.26 279.46 444.01 295.23 435.64 293.96 424.31 310.61 429.31 329.24 423.55 323.77 435.03 336.56 442.79 316.53 444.88 305.8 455.44" style="fill:#e0e0e0"></polygon><polygon id="freepik--shadow--inject-131" points="227.04 404.4 157.99 364.53 101.12 397.36 108.38 401.55 87.56 413.57 156.62 453.44 164.69 448.78 168.8 451.15 225.67 418.31 214.3 411.75 227.04 404.4" style="fill:#e0e0e0"></polygon></g><g id="freepik--Plant--inject-131"><g id="freepik--Pot--inject-131"><path d="M384.35,281.72c-9.35-9.54-14.85-38-5.73-45.59H425c9.13,7.57,3.64,36-5.71,45.58a3.19,3.19,0,0,1-.26.26l-.32.32a10.18,10.18,0,0,1-.84.75l-.23.18c-.23.18-.45.36-.7.53a13.55,13.55,0,0,1-1.21.77c-7.7,4.45-20.17,4.45-27.87,0h0a10.76,10.76,0,0,1-1.21-.78c-.24-.16-.45-.33-.66-.49l-.28-.22q-.44-.36-.81-.72l-.38-.37Z" style="fill:#37474f"></path><path d="M421,233.09c10.59,6.11,10.59,16,0,22.14s-27.76,6.12-38.35,0-10.59-16,0-22.14S410.42,227,421,233.09Z" style="fill:#455a64"></path><path d="M415.92,236c7.78,4.49,7.78,11.77,0,16.26s-20.39,4.49-28.17,0-7.78-11.77,0-16.26S408.14,231.54,415.92,236Z" style="fill:#263238"></path><path d="M387.75,243.74c7.78-4.49,20.39-4.49,28.17,0a13,13,0,0,1,4.66,4.28,12.93,12.93,0,0,1-4.66,4.27c-7.78,4.49-20.39,4.49-28.17,0a12.93,12.93,0,0,1-4.66-4.27A13,13,0,0,1,387.75,243.74Z" style="fill:#f5f5f5"></path><g id="freepik--Plants--inject-131"><path d="M393.93,224.76c1.37-2.07,3.42-3.67,4.67-5.83,2.63-4.54-.52-9,.8-13.59a7.49,7.49,0,0,1,4.16-4.46,22.55,22.55,0,0,1,6.07-1.59,9.51,9.51,0,0,0,3.2-.92c1.2-.67,1.58-1.85,2.32-2.89a20.47,20.47,0,0,1,3-3.15c2.18-2,4.92-3.56,7.95-3.42,6.31.27,6.13,5.71,4.31,9.83s-2.3,5.46,1.64,9.75,3.95,9.58-.75,12.54-7.77,3.35-5.91,9.05c1.67,5.09,2.7,9.44-2,14.88-3,3.52-7.2,6-12.4,5.81-9.42-.38-17.07-8-18.63-17.09a12.38,12.38,0,0,1,1.41-8.57Z" style="fill:#92E3A9"></path><path d="M393.93,224.76c1.37-2.07,3.42-3.67,4.67-5.83,2.63-4.54-.52-9,.8-13.59a7.49,7.49,0,0,1,4.16-4.46,22.55,22.55,0,0,1,6.07-1.59,9.51,9.51,0,0,0,3.2-.92c1.2-.67,1.58-1.85,2.32-2.89a20.47,20.47,0,0,1,3-3.15c2.18-2,4.92-3.56,7.95-3.42,6.31.27,6.13,5.71,4.31,9.83s-2.3,5.46,1.64,9.75,3.95,9.58-.75,12.54-7.77,3.35-5.91,9.05c1.67,5.09,2.7,9.44-2,14.88-3,3.52-7.2,6-12.4,5.81-9.42-.38-17.07-8-18.63-17.09a12.38,12.38,0,0,1,1.41-8.57Z" style="opacity:0.30000000000000004"></path><path d="M426.1,213.53a.47.47,0,0,0-.56-.34c-.39.1-8.94,2.36-14.73,5.58,5-12.68,11.49-19.77,11.6-19.88a.48.48,0,0,0,0-.66.46.46,0,0,0-.66,0,65.81,65.81,0,0,0-10.12,16.25,36.64,36.64,0,0,0-4.76-7.75.47.47,0,0,0-.71.61,35.93,35.93,0,0,1,4.95,8.3c-.54,1.24-1.07,2.55-1.58,3.91a.5.5,0,0,0-.12.33,81.44,81.44,0,0,0-5,29,.46.46,0,0,0,.47.46l.15,0a.48.48,0,0,0,.31-.45,80.43,80.43,0,0,1,5-28.72c5.62-3.46,15.39-6,15.49-6.06A.46.46,0,0,0,426.1,213.53Z" style="fill:#fff"></path><path d="M402.62,251.67c-.27.17-2.44.93-2.75,1-3.47,1-8,.46-12.08-.15-2.69-.4-6.33-1-8.33-3a3.58,3.58,0,0,1-1-3.84c.63-1.37,2.41-2.15,2.55-3.66-2.94-1-6.4-.21-9-1.85a10.73,10.73,0,0,1-4.08-5.32,5.82,5.82,0,0,1-.2-4.35c.72-1.46,2.6-1.81,4.21-2.05a3.2,3.2,0,0,0,1.23-.37,1.1,1.1,0,0,0,.54-1.09c-.11-.51-.67-.78-1.17-.94-1.08-.34-2.2-.55-3.25-.95a5.07,5.07,0,0,1-2.65-2,6.67,6.67,0,0,1-.49-3.94,59.45,59.45,0,0,1,1-6.78,43.82,43.82,0,0,0,.54-5.89c5.58-1.24,11.6-.78,17.15.38,3.1.65,7.6,2.1,9,5.33a6,6,0,0,1,.35,2.91,9.88,9.88,0,0,1-.31,1.33c-.06.28-.33,1.35.33.85a1.16,1.16,0,0,0,.32-.44q1.1-2.17,2.18-4.35a2.71,2.71,0,0,1,.87-1.15c.88-.55,3.22-.12,5.69,1.85a9.41,9.41,0,0,1,3.06,5.38c.73,3.27.17,6.67-.38,10l2.12-3c2.48-3.45,4,2.86,4.11,4.22a29.71,29.71,0,0,1-2,12.43C408.39,246.08,406.17,249.45,402.62,251.67Z" style="fill:#92E3A9"></path><path d="M402.62,251.67c-.27.17-2.44.93-2.75,1-3.47,1-8,.46-12.08-.15-2.69-.4-6.33-1-8.33-3a3.58,3.58,0,0,1-1-3.84c.63-1.37,2.41-2.15,2.55-3.66-2.94-1-6.4-.21-9-1.85a10.73,10.73,0,0,1-4.08-5.32,5.82,5.82,0,0,1-.2-4.35c.72-1.46,2.6-1.81,4.21-2.05a3.2,3.2,0,0,0,1.23-.37,1.1,1.1,0,0,0,.54-1.09c-.11-.51-.67-.78-1.17-.94-1.08-.34-2.2-.55-3.25-.95a5.07,5.07,0,0,1-2.65-2,6.67,6.67,0,0,1-.49-3.94,59.45,59.45,0,0,1,1-6.78,43.82,43.82,0,0,0,.54-5.89c5.58-1.24,11.6-.78,17.15.38,3.1.65,7.6,2.1,9,5.33a6,6,0,0,1,.35,2.91,9.88,9.88,0,0,1-.31,1.33c-.06.28-.33,1.35.33.85a1.16,1.16,0,0,0,.32-.44q1.1-2.17,2.18-4.35a2.71,2.71,0,0,1,.87-1.15c.88-.55,3.22-.12,5.69,1.85a9.41,9.41,0,0,1,3.06,5.38c.73,3.27.17,6.67-.38,10l2.12-3c2.48-3.45,4,2.86,4.11,4.22a29.71,29.71,0,0,1-2,12.43C408.39,246.08,406.17,249.45,402.62,251.67Z" style="opacity:0.15"></path><path d="M396,235.39a37.94,37.94,0,0,1,4.2-15.95l.06-.12a.43.43,0,0,0-.21-.57.42.42,0,0,0-.56.21l-.06.11a39.81,39.81,0,0,0-4.21,15c-6.76-11.37-16.66-22.19-21.87-25a.45.45,0,0,0-.61.18.46.46,0,0,0,.18.62c5.14,2.79,14.91,13.48,21.56,24.71a26.08,26.08,0,0,0-16.95-1.14.42.42,0,0,0-.27.54.41.41,0,0,0,.33.28.5.5,0,0,0,.21,0,25.14,25.14,0,0,1,17.41,1.58c3,5.35,5.33,10.76,6,15.44a.45.45,0,0,0,.9-.13C401.43,246.34,399.11,240.84,396,235.39Z" style="fill:#fff"></path></g></g></g><g id="freepik--Card--inject-131"><g id="freepik--card--inject-131"><polygon points="339.66 343.07 388.41 371.22 453.4 333.69 404.65 305.55 339.66 343.07" style="fill:#92E3A9"></polygon><polygon points="449.34 331.35 404.65 305.55 339.66 343.07 388.41 366.53 449.34 331.35" style="opacity:0.1"></polygon><polygon points="339.66 343.07 388.41 357.15 453.4 319.62 404.65 305.55 339.66 343.07" style="fill:#92E3A9"></polygon><polygon points="339.66 343.07 388.41 357.15 453.4 319.62 404.65 305.55 339.66 343.07" style="fill:#fff;opacity:0.6000000000000001"></polygon></g></g><g id="freepik--Glue--inject-131"><g id="freepik--glue--inject-131"><path d="M62.56,309.05l3.11-1.9c2.53-1.46,4.83-1.6,6.49-.64s9.29,5.37,11,6.38,2.61,3,2.61,5.9l3.57,41.73a5.05,5.05,0,0,1-2.29,4L65.75,376.75a1.64,1.64,0,0,1-1.63.16l-14.18-8.18a1.61,1.61,0,0,1-.67-1.48s2.83-33.66,4.11-42.3S57.49,312,62.56,309.05Z" style="fill:#92E3A9"></path><path d="M53.38,325c-1.28,8.64-4.11,42.3-4.11,42.3a1.61,1.61,0,0,0,.67,1.48l14.18,8.18a1.64,1.64,0,0,0,1.63-.16L87,364.49a5.05,5.05,0,0,0,2.29-4l-2.56-21-32.55-18.8C53.87,322,53.6,323.47,53.38,325Z" style="fill:#fff;opacity:0.6000000000000001"></path><path d="M86.69,339.5l-1-20.48,0-.23c0-2.88-1-4.92-2.61-5.9s-9.29-5.42-11-6.38-4-.82-6.49.64l-3.11,1.9c-.39.23-.84.46-1.32.7-3.44,2.37-5.7,5.65-7.06,11Z" style="fill:#fff;opacity:0.7000000000000001"></path><path d="M65.75,376.75a1.4,1.4,0,0,1-2.3-1.33l.8-44.14c0-5.85,4.11-13,9.18-15.9l3.11-1.89c2.58-1.49,4.91-1.61,6.57-.6s2.34,2.57,2.61,5.9,3.57,41.73,3.57,41.73a5.05,5.05,0,0,1-2.29,4Z" style="fill:#92E3A9"></path><path d="M65.75,376.75a1.4,1.4,0,0,1-2.3-1.33l.8-44.14c0-5.85,4.11-13,9.18-15.9l3.11-1.89c2.58-1.49,4.91-1.61,6.57-.6s2.34,2.57,2.61,5.9,3.57,41.73,3.57,41.73a5.05,5.05,0,0,1-2.29,4Z" style="fill:#fff;opacity:0.8"></path><path d="M77.4,362.11c-2.94,1.7-5.32-.84-5.32-5.66v-3c0-4.82,2.38-10.11,5.32-11.81s5.32.84,5.32,5.66v3C82.72,355.12,80.34,360.41,77.4,362.11Z" style="fill:#92E3A9"></path><path d="M77.4,362.11c-2.94,1.7-5.32-.84-5.32-5.66v-3c0-4.82,2.38-10.11,5.32-11.81s5.32.84,5.32,5.66v3C82.72,355.12,80.34,360.41,77.4,362.11Z" style="opacity:0.30000000000000004"></path><path d="M75.46,301.74v7.86a3,3,0,0,1-1.79,2.5,9.62,9.62,0,0,1-8.65,0,3.06,3.06,0,0,1-1.79-2.5v-7.86Z" style="fill:#37474f"></path><path d="M73.67,304.24a9.55,9.55,0,0,1-8.65,0c-2.38-1.38-2.38-3.61,0-5a9.55,9.55,0,0,1,8.65,0C76.06,300.63,76.06,302.86,73.67,304.24Z" style="fill:#455a64"></path><path d="M73.69,300.62a2.15,2.15,0,0,1-1.27,1.77,6.78,6.78,0,0,1-6.14,0A2.16,2.16,0,0,1,65,300.62s.62-11.19,2.48-16.09c.52-1.37,1.14-1.3,1.87-1.3s1.35-.07,1.87,1.3C73.08,289.43,73.69,300.62,73.69,300.62Z" style="fill:#e0e0e0"></path><path d="M70.39,284.07c0,.24-.47.44-1,.44s-1-.2-1-.44.47-.43,1-.43S70.39,283.83,70.39,284.07Z" style="fill:#455a64"></path><path d="M70.44,335.31a.66.66,0,0,1,.08.39v4.21a1.43,1.43,0,0,1-.28.75,4.7,4.7,0,0,1-1.48,1.39c-.86.5-1.49.45-1.9-.14a6.85,6.85,0,0,1-.61-3.5,11.73,11.73,0,0,1,.62-4.14,4.45,4.45,0,0,1,1.91-2.34,2.28,2.28,0,0,1,.8-.31,1.06,1.06,0,0,1,.62,0,.33.33,0,0,1,.24.33,2.14,2.14,0,0,1-.1.55,4.17,4.17,0,0,1-.23.68.84.84,0,0,1-.25.38h-.19a1.45,1.45,0,0,0-.35,0,1.5,1.5,0,0,0-.46.19,2,2,0,0,0-.86,1.26,9.3,9.3,0,0,0-.28,2.53,6.26,6.26,0,0,0,.27,2.29.48.48,0,0,0,.77.26,1.84,1.84,0,0,0,.38-.27V337.8l-.47.27a.13.13,0,0,1-.2-.06,1.11,1.11,0,0,1-.07-.5v-.45a1.76,1.76,0,0,1,.07-.57.46.46,0,0,1,.2-.29l1.51-.87C70.3,335.26,70.38,335.26,70.44,335.31Z" style="fill:#455a64"></path><path d="M71.59,340.18a.58.58,0,0,1-.09-.39v-8.9a.89.89,0,0,1,.54-.76l.36-.21c.36-.21.54-.16.54.14v7.62l1.36-.79c.1-.06.17,0,.22.05a1.37,1.37,0,0,1,.06.5v.44a2.16,2.16,0,0,1-.06.57.52.52,0,0,1-.22.29l-2.46,1.42C71.73,340.23,71.64,340.23,71.59,340.18Z" style="fill:#455a64"></path><path d="M75.78,337.21a2.31,2.31,0,0,1-.59-1.88v-6.57a.89.89,0,0,1,.54-.76l.36-.21c.36-.21.53-.16.53.14v6.43a1.18,1.18,0,0,0,.22.82c.14.16.33.17.56,0a1.34,1.34,0,0,0,.57-.69,2.68,2.68,0,0,0,.22-1.06V327a.88.88,0,0,1,.53-.76l.35-.2c.36-.21.54-.16.54.14v6.57a5.64,5.64,0,0,1-.58,2.56,4.11,4.11,0,0,1-1.63,1.72Q76.36,337.66,75.78,337.21Z" style="fill:#455a64"></path><path d="M80.68,334.93a.66.66,0,0,1-.08-.39v-8.76a1.26,1.26,0,0,1,.08-.48.64.64,0,0,1,.26-.28l2.71-1.56c.09-.06.15,0,.2.05a1.41,1.41,0,0,1,.06.5v.44a2.16,2.16,0,0,1-.06.57.5.5,0,0,1-.2.29l-1.62.93v2.05l1.43-.83a.13.13,0,0,1,.2.06,1.11,1.11,0,0,1,.07.5v.43a1.79,1.79,0,0,1-.07.58.44.44,0,0,1-.2.28l-1.43.83v2.29l1.62-.94c.1-.05.16,0,.2.06a1.37,1.37,0,0,1,.06.5v.44a2.16,2.16,0,0,1-.06.57.43.43,0,0,1-.2.28l-2.71,1.57C80.82,335,80.74,335,80.68,334.93Z" style="fill:#455a64"></path></g></g><g id="freepik--Trimmings--inject-131"><path id="freepik--Heart--inject-131" d="M366.33,409.94a32.69,32.69,0,0,1,.16-5.5c.5-5.19.7-10.22,5-13.82a13.09,13.09,0,0,1,14.73-1.33c3.21,1.84,2.62,5.16.42,7.66,4.31-1.29,11.68-.86,14.9,1,4.13,2.36,3.72,6.91-.89,9.84-7.25,4.63-19.43,3.87-27.58,3Z" style="fill:#455a64"></path><polygon id="freepik--Star--inject-131" points="305.08 452.21 298.17 442.02 278.75 440.78 294.51 432.41 293.24 421.08 309.89 426.08 328.52 420.32 323.06 431.8 335.84 439.56 315.81 441.65 305.08 452.21" style="fill:#92E3A9"></polygon></g><g id="freepik--Sheets--inject-131"><g id="freepik--sheets--inject-131"><g id="freepik--sheets--inject-131"><polygon points="87.56 409.56 156.62 449.43 213.48 416.6 144.43 376.73 87.56 409.56" style="fill:#92E3A9"></polygon><polygon points="87.56 409.56 156.62 449.43 213.48 416.6 144.43 376.73 87.56 409.56" style="opacity:0.30000000000000004"></polygon><polygon points="99.75 410.94 161.51 446.6 213.48 416.6 151.72 380.93 99.75 410.94" style="opacity:0.1"></polygon></g><g id="freepik--sheets--inject-131"><polygon points="99.75 407.27 168.8 447.13 225.67 414.3 156.62 374.43 99.75 407.27" style="fill:#92E3A9"></polygon><polygon points="109.28 401.76 170.17 436.92 217.51 409.59 156.62 374.43 109.28 401.76" style="opacity:0.1"></polygon></g><g id="freepik--sheets--inject-131"><polygon points="101.12 393.35 170.17 433.22 227.04 400.38 157.99 360.52 101.12 393.35" style="fill:#92E3A9"></polygon><polygon points="101.12 393.35 170.17 433.22 227.04 400.38 157.99 360.52 101.12 393.35" style="fill:#fff;opacity:0.6000000000000001"></polygon></g></g></g><g id="freepik--Character--inject-131"><g id="freepik--character--inject-131"><g id="freepik--Bottom--inject-131"><path d="M263.2,336.55l12.21-24.06L300,326.88l-30.3,35.76s-15-1.39-17.43-9.22S259.06,339.15,263.2,336.55Z" style="fill:#ffa8a7"></path><path d="M245.89,346a12.61,12.61,0,0,0-3.41,3.72c-1,1.47-.68,8.59-1.63,11.89s-1.67,4.19-3.25,8.33c-1.75,4.59-5,8.78-1.33,20.58,3.7,12,9.51,17.43,14.46,20.31a13,13,0,0,0,6,1.44s6.48-2.44,5.48-6.28S245.89,346,245.89,346Z" style="fill:#263238"></path><path d="M274.31,359c-.17,1.21-1.87,3.08-2.56,4.07-2.33,3.34-3.4,7.85-4.2,11.8-3.82,18.67,3.6,28.16-6.45,35.17-2.91,1.83-9,1.33-18.13-10.44-4.69-6-7.37-18.38-5.54-24s4.33-9.24,5.51-13.55.57-12.33,2.95-16a17.33,17.33,0,0,1,5.83-5c1.78-1.08,5.68-2.51,7.5-3.54s2.81-2.21,4-.89l-2.09,2.59c-3.28,4.54-2.37,5.2-2.29,7.62s-.76,5.18-1.22,7.68c2.33-2.94,3.29-5.5,5.83-5.05,2.38.42,2.85.32,6.49,3.74S274.47,357.87,274.31,359Z" style="fill:#92E3A9"></path><path d="M274.31,359c-.17,1.21-1.87,3.08-2.56,4.07-2.33,3.34-3.4,7.85-4.2,11.8-3.82,18.67,3.6,28.16-6.45,35.17-2.91,1.83-9,1.33-18.13-10.44-4.69-6-7.37-18.38-5.54-24s4.33-9.24,5.51-13.55.57-12.33,2.95-16a17.33,17.33,0,0,1,5.83-5c1.78-1.08,5.68-2.51,7.5-3.54s2.81-2.21,4-.89l-2.09,2.59c-3.28,4.54-2.37,5.2-2.29,7.62s-.76,5.18-1.22,7.68c2.33-2.94,3.29-5.5,5.83-5.05,2.38.42,2.85.32,6.49,3.74S274.47,357.87,274.31,359Z" style="opacity:0.4"></path><path d="M243,399.55c-4.69-6-7.37-18.38-5.54-24a52.79,52.79,0,0,1,2.15-5.42c-.07.38-.19.76-.24,1.09-.11.72-.21,1.45-.28,2.18a16.72,16.72,0,0,0,.93,8.47c1.06,2.33,3.5,8.17,6.64,8.3,1.78.07,3.28-1.67,4-3.66.29-.84.76-3.11.76-3.11a27.58,27.58,0,0,1,8.17,3.34c4.56,3,4.39,3.68,4.39,3.68a12,12,0,0,0-.15,4,10.08,10.08,0,0,0,1.7,4,6.67,6.67,0,0,0,1.16.93c-.19,4.3-1.32,7.69-5.53,10.63C258.19,411.82,252.15,411.31,243,399.55Z" style="opacity:0.30000000000000004"></path><path d="M267.55,374.82a62.88,62.88,0,0,0-1.17,14.92c-1.71,4.78-3.22,4.64-3.42,2.17s3.09-12.76,5.55-21.26C268.13,372.06,267.82,373.47,267.55,374.82Z" style="fill:#37474f"></path><path d="M256.18,344.88a10.46,10.46,0,0,1,1.83-6.83c.45-.22.87-.42,1.21-.61,2-1.12,2.81-2.21,4-.89l-2.09,2.59c-3.28,4.54-2.37,5.2-2.29,7.62s-.76,5.18-1.22,7.68c-1.9,8.11-3.64,10.82-4.53,18.48s.63,12.8-.45,13.24-3.27-.44-3.66-6.58,2.31-16.45,4.22-21.34S256.57,348.15,256.18,344.88Z" style="fill:#37474f"></path><path d="M250.82,384a.78.78,0,0,0,.39.21c5.38,1.11,8.24,2.46,12.24,7.17a.78.78,0,0,0,1.08.09.76.76,0,0,0,.09-1.07c-4.23-5-7.38-6.51-13.1-7.68a.76.76,0,0,0-.9.59A.75.75,0,0,0,250.82,384Z" style="fill:#ebebeb"></path><path d="M251.79,377.57a.77.77,0,0,0,.38.22c5.56,1.29,8.65,2.86,12.89,7.82a.77.77,0,0,0,1.11.09.78.78,0,0,0,.09-1.1c-4.48-5.23-7.84-7-13.74-8.34a.78.78,0,0,0-.73,1.31Z" style="fill:#ebebeb"></path><path d="M251.65,370.54a.93.93,0,0,0,.42.24c6.14,1.42,9.74,3.32,14.42,8.79a.86.86,0,1,0,1.31-1.12c-4.93-5.75-8.84-7.85-15.34-9.36a.87.87,0,0,0-.81,1.45Z" style="fill:#ebebeb"></path><path d="M252.67,364.53a.79.79,0,0,0,.42.23c6,1.39,9.49,3.22,14.09,8.6a.85.85,0,0,0,1.29-1.11c-4.83-5.64-8.63-7.66-15-9.14a.85.85,0,0,0-.8,1.42Z" style="fill:#ebebeb"></path><path d="M254.88,358.68a.76.76,0,0,0,.41.23c6,1.4,9.49,3.22,14.09,8.6a.86.86,0,0,0,1.2.09.85.85,0,0,0,.09-1.2c-4.83-5.64-8.63-7.66-15-9.14a.84.84,0,0,0-.79,1.42Z" style="fill:#ebebeb"></path><polygon points="269.83 338.47 285.75 351.48 294.75 357.13 284.47 376.56 255.53 362.7 269.83 338.47" style="fill:#ffa8a7"></polygon><path d="M237.41,251.59s57.92-9.6,82.7-9.44c25.29.16,27.64,19.15,21.31,30.78-12.12,22.27-54.25,69.5-54.25,69.5s-14.15-6.49-18.5-18.73l9.61-22-30.67,9.77-3.54-4.31-9.84-22.48Z" style="fill:#455a64"></path><path d="M283.33,282.9a217.71,217.71,0,0,0-12.77,21.22l7.72-2.46c8.71-20.74,10.5-26.79,24.41-36.51C302.69,265.15,292.71,268.91,283.33,282.9Z" style="fill:#37474f"></path><path d="M237.41,251.59,148.11,268s-8.87,33.48-1.26,53.27,27.54,26.09,37.09,26.83c13.65,1.05,29.5-3.17,29.5-3.17s7.86,6.16,15.84,9.33,42.9,17.8,42.9,17.8,9.81-8.31,8.84-25.61l-36.95-39.29Z" style="fill:#455a64"></path><path d="M272.18,372s1.9-.88,4.61-6c-9-2.13-38.76-13.77-48.37-17.84-17.1-7.24-22.38-14.9-22.38-14.9s-.11,5.09,7.4,11.63c0,0,7.86,6.16,15.84,9.33S272.18,372,272.18,372Z" style="fill:#37474f"></path><path d="M195.16,341.62c-8.54,1.37-31.54-2.86-39-19.07-7.31-15.87-4.85-34.81-3.22-51.11l-2.76.64-3.18.75c-2.11,10-6,33.22-.13,48.4,7.61,19.78,27.54,26.09,37.09,26.83,13.65,1.05,29.5-3.17,29.5-3.17l-4.54-7A59.2,59.2,0,0,1,195.16,341.62Z" style="fill:#37474f"></path><path d="M248,311.34s-1.61-1.92-5-5.88-8.83-11.47-22.84-10.93-41,3-41,3,28.11-4.79,37.81-6.41,16.18-.49,21.71,4.42,14.12,14.24,14.12,14.24Z" style="fill:#37474f"></path><path d="M229.26,293.37a27.92,27.92,0,0,0,6.55-19.46s3.36,12.79-2,22.08Z" style="fill:#37474f"></path><path d="M331.23,367.25c6.82,2.69,11,5.39,14.17,9.5s4.11,8.28,1.12,13.27-8.49,10.83-15,10.45-10.54-2-16.59-5.29Z" style="fill:#263238"></path><path d="M276.79,373c-.09,2,8.51,6.11,17.45,10.37,9.58,4.57,11.94,7.55,19.76,11.4,8.94,4.4,12.34,4.65,19.27,2.72s15.5-11.85,9.54-21c-4.86-7.45-11.16-9.49-20.71-12a181.27,181.27,0,0,1-22.34-7.22c-6.9-2.68-12.59-7.5-14-5.83,1,.48,8.2,4.93,6.84,6.15-.34.62-1.37.43-3.14-.31a3,3,0,0,0-2.48-.12,4.7,4.7,0,0,0-1.78,2.15c-1.11,2-1.25,3.32-2.17,5.47-.53,1.26-.31.53-.81,1.8-.55,1.43-1.61,3.58-1.47,4.89.08.79.65,1,1.26,1.43s1.46.85,2,1.29c.23.17.64.76.51,1.06-.22.5-1.46.26-2,0s-1.39-.43-2-.67S278.37,373.75,276.79,373Z" style="fill:#92E3A9"></path><path d="M276.79,373c-.09,2,8.51,6.11,17.45,10.37,9.58,4.57,11.94,7.55,19.76,11.4,8.94,4.4,12.34,4.65,19.27,2.72s15.5-11.85,9.54-21c-4.86-7.45-11.16-9.49-20.71-12a181.27,181.27,0,0,1-22.34-7.22c-6.9-2.68-12.59-7.5-14-5.83,1,.48,8.2,4.93,6.84,6.15-.34.62-1.37.43-3.14-.31a3,3,0,0,0-2.48-.12,4.7,4.7,0,0,0-1.78,2.15c-1.11,2-1.25,3.32-2.17,5.47-.53,1.26-.31.53-.81,1.8-.55,1.43-1.61,3.58-1.47,4.89.08.79.65,1,1.26,1.43s1.46.85,2,1.29c.23.17.64.76.51,1.06-.22.5-1.46.26-2,0s-1.39-.43-2-.67S278.37,373.75,276.79,373Z" style="opacity:0.4"></path><path d="M310.93,393.31c1.29.65,9.4,4.42,11.95,2.15,2.76-2.44-3.75-6.35-3.75-6.35s-1-6.12,6.39-15.12c1.28,1,6.62.94,6.54-2.2s-9-7-9.14-7c9.15,2.44,15.17,4.55,19.89,11.78,6,9.13-2.6,19.06-9.54,21s-10.33,1.68-19.27-2.72C313.11,394.35,311.72,393.77,310.93,393.31Z" style="opacity:0.30000000000000004"></path><path d="M320,388.5c3.38,1.13,1.06,4.21-3.89,3.21-7.43-1.5-13.6-5.71-21.87-8.32-8.94-4.26-18-8.24-17.46-10.49,1.6.6,5,2,5,2,.68.29,2.4.93,2.4.93,6.78,2.92,14.27,7.63,21.6,9.62C312.26,387.22,316.62,387.37,320,388.5Z" style="fill:#37474f"></path><path d="M325,375.15c-3.1-1.79-3.63-3.32-9.71-6.11s-16.34-8.76-22.68-12.46a79.2,79.2,0,0,1-6.89-5.1c1.05-1.19,4.92-.09,8.79,2.35s6.23,4,10.07,6c7.45,4.47,15.95,7.5,20.21,10.24S328.13,376.94,325,375.15Z" style="fill:#37474f"></path><path d="M325.49,374.33a1.27,1.27,0,0,1-.18.27c-.06.07-4.91,5.4-5.8,15a.89.89,0,0,1-.84.84.74.74,0,0,1-.69-.86c.95-10.27,6-15.84,6.31-16.14a.71.71,0,0,1,1.08,0A.89.89,0,0,1,325.49,374.33Z" style="fill:#f0f0f0"></path><path d="M319.48,369.94a1,1,0,0,1-.16.25,37.15,37.15,0,0,0-7.17,17.7.91.91,0,0,1-.87.81.75.75,0,0,1-.66-.89,38.19,38.19,0,0,1,7.64-18.74.72.72,0,0,1,1.09-.08A.88.88,0,0,1,319.48,369.94Z" style="fill:#f0f0f0"></path><path d="M306.25,387.26a.88.88,0,0,1-.72.54.73.73,0,0,1-.74-.81c.35-10.85,7.34-21,7.67-21.39a.72.72,0,0,1,1.09,0,.94.94,0,0,1-.06,1.2c-.08.08-6.84,10-7.16,20.13A.86.86,0,0,1,306.25,387.26Z" style="fill:#f0f0f0"></path><path d="M300.7,383.71a.9.9,0,0,1-.71.54.73.73,0,0,1-.76-.79,32,32,0,0,1,8.09-20.3.72.72,0,0,1,1.09,0,.94.94,0,0,1-.14,1.21,30.7,30.7,0,0,0-7.49,18.93A1.17,1.17,0,0,1,300.7,383.71Z" style="fill:#f0f0f0"></path><path d="M293.5,380.66a.87.87,0,0,1-.7.54.73.73,0,0,1-.77-.77c.05-11.29,8-20,8.34-20.38a.72.72,0,0,1,1.09,0,.92.92,0,0,1-.11,1.21c-.08.08-7.73,8.53-7.77,19A.92.92,0,0,1,293.5,380.66Z" style="fill:#ebebeb"></path></g><g id="freepik--Top--inject-131"><path d="M209.92,153.71c13.2-.59,18.84,4.59,27.91,16.22,8.4,10.76,28.39,38.29,28.39,38.29s4-2.81,18-14.49c10.76-8.94,14-14.32,14-14.32l10.15,18.69c-3.58,3-17.35,23-25.7,32.28-11.61,12.91-18.91,13.62-29.09,5.8-15.31-11.75-42.2-44.25-42.2-44.25l-1.51-38.22" style="fill:#ffa8a7"></path><path d="M266.22,208.22c-5.31,4.51-8.53,11.6-8.86,15.62-1-7.81.79-14.39,6.44-19Z" style="fill:#f28f8f"></path><path d="M290.51,188.21c4-3.83,2.47-6,4.34-10.07,1.53-3.3,6.49-7.84,11-8.93s8.82-3.79,11.16-4.23,11.59-3,12.83-2.31.09,2.35.93,5.33.57,15.41-.45,17.26-2.94,5.41-6.44,5.91-4.34,3.09-8.87,4.73c-2.23.81-3.85.7-5,1.16-1.66.67-2.53,1.93-4.34,4Z" style="fill:#ffa8a7"></path><path d="M325,163.15c6.88-1.36,11.71-2.52,13.39-1.9a71,71,0,0,1,7.15,3c.72.53.22,2.88-2.16,3.35A13,13,0,0,1,338,167l-9.7,2.31,2.39.7-4.23,2.61S323.16,164.25,325,163.15Z" style="fill:#ffa8a7"></path><path d="M336.71,163.48A3.15,3.15,0,0,0,338,167s1.11.32,2.18.52A5.3,5.3,0,0,1,336.71,163.48Z" style="fill:#f28f8f"></path><path d="M319.44,171.13c-1.39,4.82-.68,13,5.62,16.28a20.2,20.2,0,0,1-4.43-7.21A31.16,31.16,0,0,1,319.44,171.13Z" style="fill:#f28f8f;opacity:0.5"></path><path d="M311.34,175.85s3.47,6.67,1.44,13.85c3.46-6.23,1.25-12.21-.84-15.88Z" style="fill:#f28f8f"></path><path d="M321.16,164c-1.15.21-3.57.85-4.18,1-2.34.44-6.69,3.14-11.16,4.23s-6.48,2.89-7.46,7.51c-.12.53-.44,2.5-.6,3a15.64,15.64,0,0,0-.14,2.23c.11,1.55,3.82,4.14,8.4,2.62a6.63,6.63,0,0,0,2.83-2,10.62,10.62,0,0,0,2.16-3.4,50.65,50.65,0,0,1,4.88-10.75A11.16,11.16,0,0,1,321.16,164Z" style="fill:#f28f8f"></path><path d="M324.11,189.26c.31-.08.62-.17.92-.27l6.53-9.92a32.93,32.93,0,0,0-.82-11.07c-.84-3,.31-4.65-.93-5.33a6.82,6.82,0,0,0-3,.15c-1.08,2.59-1,6.27-1.71,6.94s-2.56-.81-3.62-2.55c.14,3.46,3.95,4.28,3.95,4.28-.09,2.64-.33,5.07-.33,5.07-3.11,1.65-3.17,3.47-3.32,5.27C321.62,183.28,323.39,187.58,324.11,189.26Z" style="fill:#f28f8f;opacity:0.5"></path><path d="M332.3,154.38l-7.83-45.85s-2,2.14-1.76,13.69,4.06,38.35,4.06,38.35l2.65-.23Z" style="fill:#263238"></path><path d="M342.74,108.79s-4.43,6.17-6.15,11.07-12.89,32.42-12.89,32.42l-1.22,7.26,2.21.42,6.63-7.41s8.41-28.23,10.1-34.24S343.54,107.62,342.74,108.79Z" style="fill:#455a64"></path><path d="M298.87,183.47c5.26,3,9.94-2.17,11.2-5.37s2.32-7.78,4.63-10.24,7.78-8.32,7.78-8.32l1.22-7.26s-6.72,5.8-11.59,9.11c-3.92,2.66-9.67,3.49-13.06,8.28S293.58,180.45,298.87,183.47Zm.94-10.23c1.43-2.57,4.25-3.73,6.3-2.59s2.55,4.14,1.12,6.71-4.24,3.73-6.29,2.59S298.39,175.81,299.81,173.24Z" style="fill:#92E3A9"></path><path d="M298.87,183.47c5.26,3,9.94-2.17,11.2-5.37s2.32-7.78,4.63-10.24,7.78-8.32,7.78-8.32l1.22-7.26s-6.72,5.8-11.59,9.11c-3.92,2.66-9.67,3.49-13.06,8.28S293.58,180.45,298.87,183.47Zm.94-10.23c1.43-2.57,4.25-3.73,6.3-2.59s2.55,4.14,1.12,6.71-4.24,3.73-6.29,2.59S298.39,175.81,299.81,173.24Z" style="opacity:0.30000000000000004"></path><path d="M326.7,150.57a1.63,1.63,0,1,0,2.85,1.58,1.62,1.62,0,0,0-.63-2.21A1.64,1.64,0,0,0,326.7,150.57Z" style="fill:#263238"></path><path d="M332.23,154l-4.37,6.51a100.67,100.67,0,0,1-1.71,15.73c-1.2,7.17-3.08,9.47-2.74,12.93s2.94,7.14,9.29,3.18,8.72-15.81,7-20.76-3.82-7.22-4.51-9.2-1.89-8.48-1.89-8.48Zm.13,13c2.26.78,4.59,4.05,4.46,9.62s-2.17,9.67-4.9,12.22c-2.56,2.4-4.92,1.67-5.12-.25-.25-2.35,1.14-4.06,2.12-8.57a55.49,55.49,0,0,0,1.26-10.59C330.24,166.94,331.49,166.64,332.36,167Z" style="fill:#92E3A9"></path><path d="M332.23,154l-4.37,6.51a100.67,100.67,0,0,1-1.71,15.73c-1.2,7.17-3.08,9.47-2.74,12.93s2.94,7.14,9.29,3.18,8.72-15.81,7-20.76-3.82-7.22-4.51-9.2-1.89-8.48-1.89-8.48Zm.13,13c2.26.78,4.59,4.05,4.46,9.62s-2.17,9.67-4.9,12.22c-2.56,2.4-4.92,1.67-5.12-.25-.25-2.35,1.14-4.06,2.12-8.57a55.49,55.49,0,0,0,1.26-10.59C330.24,166.94,331.49,166.64,332.36,167Z" style="opacity:0.30000000000000004"></path><path d="M302.24,178.58A4.66,4.66,0,0,0,307.3,177a11.63,11.63,0,0,0,1.6-2.88,10.55,10.55,0,0,1,2-3,17.77,17.77,0,0,0,3.16-3.61c1.32-2.25,1.71-3.64.79-6.29a4.75,4.75,0,0,0-1.49-2c-.33-.29-1,0-2.62,2.45a22.69,22.69,0,0,1-4.55,4.56,18.6,18.6,0,0,0-5.85,6.56C299.29,175,299.65,177.72,302.24,178.58Z" style="fill:#ffa8a7"></path><path d="M310.8,171.24a5.71,5.71,0,0,1-2-1.8,3.15,3.15,0,0,0,1.39,2.47A6.5,6.5,0,0,1,310.8,171.24Z" style="fill:#f28f8f"></path><path d="M332.36,167c-.93,1.19-1.78,2.34-.56,2.49,0,0,3.35.48,4,1.16a3.22,3.22,0,0,1,.32,3.56c-.75,1.43-1.17,2.4-1.17,2.4a3.24,3.24,0,0,1,1.33,1.81c.2,1.08.14,1.54-1,3.1a25.68,25.68,0,0,1-2,2.44,2.29,2.29,0,0,1,.2,1.8,37.81,37.81,0,0,1-2.93,4.51,4.14,4.14,0,0,1-2.58,1.31,17.76,17.76,0,0,1-3.9.11c-1.3,0-2.53.13-2.67-1.17a2.22,2.22,0,0,1,.89-2.18l-1.45,0c-.42,0-1.55-1.44-.56-3.08s1.86-1.61,1.86-1.61a2.46,2.46,0,0,1-.33-2.42,6.38,6.38,0,0,1,3.86-3.7,18.94,18.94,0,0,0,4-1.79s.25-2.16.29-5.46C330,167.3,330.44,166.21,332.36,167Z" style="fill:#ffa8a7"></path><path d="M327.07,183.34c-1.67.32-4,1.36-4.83.07a5,5,0,0,0-.8.45l.27.5c.36.63,1.48,1,2.77.56a31.34,31.34,0,0,1,5.6-1.3,3.93,3.93,0,0,0,3-2.09,20,20,0,0,1,2-3.1c.54-.5,1.15,0,1.27,1a3.71,3.71,0,0,0-.08-1,3.24,3.24,0,0,0-1.33-1.81,35.4,35.4,0,0,1-3.34,5.4C331,182.6,328.74,183,327.07,183.34Z" style="fill:#f28f8f"></path><path d="M329.49,187.2a9.65,9.65,0,0,1-3.63.81c-1.49.13-3.44.15-3.44.15a2.48,2.48,0,0,0-1,1.66,4.78,4.78,0,0,1,2-1c1.16-.22,4.36-.31,5.54-.67a8.65,8.65,0,0,0,2.58-1.56c.82-.57,1.81-.78.47,1.53a16.66,16.66,0,0,0,1.44-2.39,2.29,2.29,0,0,0-.2-1.8A15.17,15.17,0,0,1,329.49,187.2Z" style="fill:#f28f8f"></path><path d="M324.08,191.64a11.53,11.53,0,0,1-1.44,0,1.31,1.31,0,0,1-1.23-.76,2.7,2.7,0,0,1-.05-1.49,2.29,2.29,0,0,1,.85-1.24l.09.29h-1.41a.79.79,0,0,1-.52-.26,2.4,2.4,0,0,1-.65-1.87,3.5,3.5,0,0,1,.78-1.79,2.6,2.6,0,0,1,1.65-1.12l-.13.31a2.58,2.58,0,0,1-.48-2.06,4.47,4.47,0,0,1,.85-1.88,7.39,7.39,0,0,1,3.29-2.31,8,8,0,0,0-3.09,2.45,4.16,4.16,0,0,0-.72,1.79,2.24,2.24,0,0,0,.41,1.76l.21.26-.35,0a2.3,2.3,0,0,0-1.33,1,3.31,3.31,0,0,0-.72,1.6,2.07,2.07,0,0,0,.53,1.58.45.45,0,0,0,.28.17h.47l.93,0h.5l-.4.28a1.93,1.93,0,0,0-.79,1.05,2.48,2.48,0,0,0,0,1.35,1.17,1.17,0,0,0,1,.73A11.32,11.32,0,0,0,324.08,191.64Z" style="fill:#f28f8f"></path><path d="M149.84,258c1.69-7.32,3.68-17,4.3-22,.65-5.23.78-12.42-3.92-22.84-9.78-21.62-1.59-41.56,1.41-51.49,7.8-2.32,18.72-4.46,18.72-4.46s19.05.54,27.61-3l12-.46c6.51,6.25,23.61,19.56,29.16,32.18,3.71,8.46,3.61,20.87-6.52,29.28a152.93,152.93,0,0,1-1.53,20.4s3.09,8.34,6.95,17.85c-1.43,14.93-22.4,31.73-49.77,34.64-32.11,3.42-43.06-5.17-43.06-5.17S145.13,278.34,149.84,258Z" style="fill:#92E3A9"></path><path d="M149.84,258c1.69-7.32,3.68-17,4.3-22,.65-5.23.78-12.42-3.92-22.84-9.78-21.62-1.59-41.56,1.41-51.49,7.8-2.32,18.72-4.46,18.72-4.46s19.05.54,27.61-3l12-.46c6.51,6.25,23.61,19.56,29.16,32.18,3.71,8.46,3.61,20.87-6.52,29.28a152.93,152.93,0,0,1-1.53,20.4s3.09,8.34,6.95,17.85c-1.43,14.93-22.4,31.73-49.77,34.64-32.11,3.42-43.06-5.17-43.06-5.17S145.13,278.34,149.84,258Z" style="opacity:0.30000000000000004"></path><path d="M216.11,217.34s-7.18,9.66-22.31,8.6c-15.6-1.09-19.16-13.83-19.16-13.83s0,16.89,18.68,18.2C210.51,231.51,216.11,217.34,216.11,217.34Z" style="opacity:0.1"></path><path d="M155,160.67c-8.46,1.48-14,3.78-17.64,9.87-4.66,7.83-16.62,54.19-16.62,54.19L95.2,203.54c-6.16-5.94-6.29-11-9.94-16.12l-14.32-.92c.09.78-.74,1.23-3.71.78-7-1.05-19.65-10.66-22.77-12.5s-3.63,2.2-2.4,5-.05,10.13,2,14.8c2.22,5,3.52,7.16,9.65,11.09,5.71,3.66,18.41,6.88,24.24,12s20.06,22.92,30.25,32.69c12.9,12.38,23.14,14.21,28.38,9.64,8.11-7.06,17.66-37.93,24.62-56.4C166.29,190.3,160.75,166.14,155,160.67Z" style="fill:#ffa8a7"></path><path d="M64.79,196.42c8.2-.7,14.74.35,17.54,5.37,0,0,.24-7.13-14.13-8.64Z" style="fill:#f28f8f"></path><path d="M120.77,224.73c5.67,3.44,8.81,10.49,9.77,13.26a20.43,20.43,0,0,0-9-16.36Z" style="fill:#f28f8f"></path><path d="M70.94,186.5c-6.33,27.86-21.8,43.31-21.8,43.31s-22.87-26.52-35.76-30.72c0,0,24.61-27.48,23.85-64.61,0,0,24.34,14.34,35,32.24C72.23,166.72,73.69,174.36,70.94,186.5Z" style="fill:#92E3A9"></path><path d="M70.94,186.5c-6.33,27.86-21.8,43.31-21.8,43.31s-22.87-26.52-35.76-30.72c0,0,24.61-27.48,23.85-64.61,0,0,24.34,14.34,35,32.24C72.23,166.72,73.69,174.36,70.94,186.5Z" style="fill:#fff;opacity:0.4"></path><path d="M70.94,186.5c-.12-1.07-1.94-2.75-2.37-3.63-.74-1.53-5.25-8-3.29-11.15s3.44,0,7.67,4.45,8.65,6.1,12.31,11.25" style="fill:#ffa8a7"></path><path d="M160.8,74.9c-4.09.68-11.7,4-16.05,13.06a24.53,24.53,0,0,0,2.49,25.1,20.9,20.9,0,0,0,11.68,35.68c-.43-2.2-.92-5.2-.09-7.28a12.94,12.94,0,0,0,8.07,9.82c13.4,5.74,29.11-3.53,31.36-6.66,3.07-4.25,6.85-7.85,10.15-11.94l.42-.52c4-5.19,7.31-10.89,12.85-14.48,9.83-6.39,10.22-12.07,9.17-17.76a14,14,0,0,1,1.73,8.13,22.68,22.68,0,0,0,1-22.11c-3.42-6.61-11.58-12.72-19.3-11.66-1.58-4.81-7.59-10.81-16.79-12.85S167.54,59.79,160.8,74.9Z" style="fill:#455a64"></path><path d="M214.46,84c2.77,2.11,9.36,9.22,10.11,30.42.79,22.05-6.85,28.93-10.14,30.84s-8.93,2.33-17.21,1.28v7.87s6.55,5.72,9.73,12.32c2.56,5.33-7.92,11.48-22.49,5-6.93-3.09-13.13-10.75-14.47-12.51l-.42-28.05a8.77,8.77,0,0,1-9.1-.1c-6.53-3.94-6.59-9.74-3.27-14.71,2.36-3.52,9.29-4.55,13.2.07,0,0,10,.83,23.22-6.09C207.64,103,211.48,95.75,214.46,84Z" style="fill:#ffa8a7"></path><path d="M197.69,129l9.74,2.82a4.87,4.87,0,0,1-6.11,3.56A5.32,5.32,0,0,1,197.69,129Z" style="fill:#b16668"></path><path d="M198.79,130.48a4.92,4.92,0,0,0-1.22.17,5.3,5.3,0,0,0,3.75,4.71,4.83,4.83,0,0,0,2.53,0A5.07,5.07,0,0,0,198.79,130.48Z" style="fill:#f28f8f"></path><path d="M171.26,124.05h0L170,112.87l7.13-.81.46,4A7.18,7.18,0,0,1,171.26,124.05Z" style="fill:#455a64"></path><path d="M199.19,112.65a2.69,2.69,0,1,1-3.11-2.33A2.74,2.74,0,0,1,199.19,112.65Z" style="fill:#263238"></path><path d="M221,103.53l-6.46-1.48a3.18,3.18,0,0,1,3.85-2.54A3.47,3.47,0,0,1,221,103.53Z" style="fill:#263238"></path><path d="M195.3,103l-6.07,4.27a3.56,3.56,0,0,1,.77-5.12A3.89,3.89,0,0,1,195.3,103Z" style="fill:#263238"></path><path d="M219.3,110.18a2.69,2.69,0,1,1-3.11-2.33A2.76,2.76,0,0,1,219.3,110.18Z" style="fill:#263238"></path><polygon points="207.01 109.86 208.1 126.25 217.11 123.29 207.01 109.86" style="fill:#f28f8f"></polygon><path d="M197.22,146.56c-8.46-1.41-17.79-4.89-20.62-10.2a13.82,13.82,0,0,0,5.47,8.51c4.61,3.12,15.15,5.49,15.15,5.49Z" style="fill:#f28f8f"></path><path d="M169.82,104a17.24,17.24,0,0,0,2,7.55,5.38,5.38,0,0,1-3.36,1.52c-1.83-2.17-2.49-6.23-1.94-8A5.53,5.53,0,0,1,169.82,104Z" style="fill:#92E3A9"></path></g></g></g><g id="freepik--speech-bubble--inject-131"><g id="freepik--speech-bubble--inject-131"><g id="freepik--speech-bubble--inject-131"><path d="M342.47,32.62,264.81,77.37a2.64,2.64,0,0,0-1.19,2.07v34.33a2.62,2.62,0,0,0,1.2,2.06l4.28,2.49a2.7,2.7,0,0,0,2.4,0l77.66-44.84a2.62,2.62,0,0,0,1.19-2.07V37.07a2.63,2.63,0,0,0-1.2-2.06l-4.29-2.4A2.68,2.68,0,0,0,342.47,32.62Z" style="fill:#92E3A9"></path><path d="M270.31,117.62V83.29a2.64,2.64,0,0,1,1.19-2.07l77.66-44.84c.66-.38,1.19-.07,1.19.69V71.4a2.62,2.62,0,0,1-1.19,2.07L271.5,118.31C270.84,118.69,270.31,118.38,270.31,117.62Z" style="fill:#92E3A9"></path><path d="M271.5,118.31a2.73,2.73,0,0,1-2.4,0l-4.28-2.49a2.6,2.6,0,0,1-1.2-2.06V79.44a2.39,2.39,0,0,1,.38-1.22l6.66,3.89a2.4,2.4,0,0,0-.35,1.18v34.32C270.31,118.31,270.8,118.72,271.5,118.31Z" style="opacity:0.2"></path><path d="M350.34,36.86c-.1-.61-.59-.82-1.19-.48L271.5,81.22a2.49,2.49,0,0,0-.84.89L264,78.22a2.39,2.39,0,0,1,.82-.85l77.66-44.75a2.7,2.7,0,0,1,2.4,0l4.28,2.4A2.66,2.66,0,0,1,350.34,36.86Z" style="fill:#fff;opacity:0.4"></path><path d="M263.62,91.29,254,101.08a1.07,1.07,0,0,0,.18,1.64c.2.13,6.67,3.83,6.67,3.83l9.47-11.4Z" style="fill:#92E3A9"></path><path d="M263.62,91.29,254,101.08a1.07,1.07,0,0,0,.18,1.64c.2.13,6.67,3.83,6.67,3.83l9.47-11.4Z" style="opacity:0.1"></path><path d="M270.31,95.15l-9.63,9.79a1.06,1.06,0,0,0,.91,1.79l8.72-1.26C271.24,105.47,271.24,95.15,270.31,95.15Z" style="fill:#92E3A9"></path></g><g id="freepik--Like--inject-131"><path d="M295.29,91a4.91,4.91,0,0,1-1.72,3.07,3.79,3.79,0,0,1,.25,1.47A4.66,4.66,0,0,1,291.57,99c-1.33.78-10.18,5.89-10.18,5.89V91.65s2.8-6.37,3.05-7.29a28.08,28.08,0,0,0,0-4.77,2.41,2.41,0,0,1,2.74-1.19,1.25,1.25,0,0,1,.59.66,7.16,7.16,0,0,1,.61,2.12,10.81,10.81,0,0,1-.2,3.78l6.15-3.55a1.2,1.2,0,0,1,1.19-.16,1.48,1.48,0,0,1,.64,1.32,4.55,4.55,0,0,1-1,2.65s1.22-.37,1.22,1.28a4.29,4.29,0,0,1-1.5,3S295.29,89.83,295.29,91Z" style="fill:#fafafa"></path><path d="M275.48,95.25l0,14.32c0,.32.23.45.5.29l3.43-2a1.1,1.1,0,0,0,.5-.87V92.71c0-.32-.22-.45-.5-.29l-3.45,2A1.11,1.11,0,0,0,275.48,95.25Z" style="fill:#fafafa"></path></g><path d="M308.56,84.36a.28.28,0,0,1,.37,0,.62.62,0,0,1,.16.48v3.18a1.46,1.46,0,0,1-.16.66.9.9,0,0,1-.37.45l-9,5.2a.27.27,0,0,1-.37,0,.62.62,0,0,1-.16-.48V74.49a1.46,1.46,0,0,1,.16-.66,1,1,0,0,1,.37-.45l2.55-1.48a.29.29,0,0,1,.37,0,.66.66,0,0,1,.16.48V87.79Z" style="fill:#fafafa"></path><path d="M320.52,77.46a.3.3,0,0,1,.37,0,.66.66,0,0,1,.16.49v3.17a1.46,1.46,0,0,1-.16.66,1,1,0,0,1-.37.46l-9.23,5.33a.29.29,0,0,1-.37,0,.66.66,0,0,1-.16-.48V67.71a1.6,1.6,0,0,1,.16-.66,1,1,0,0,1,.37-.45l9.08-5.24a.29.29,0,0,1,.37,0,.65.65,0,0,1,.15.47V65a1.58,1.58,0,0,1-.15.66,1.12,1.12,0,0,1-.37.46l-6,3.46v3.24l5.57-3.22a.29.29,0,0,1,.37,0,.66.66,0,0,1,.15.48v3.17a1.59,1.59,0,0,1-.15.67,1,1,0,0,1-.37.45l-5.57,3.21V81Z" style="fill:#fafafa"></path><path d="M332.71,54.23a.29.29,0,0,1,.37,0,.62.62,0,0,1,.16.48v3.17a1.46,1.46,0,0,1-.16.66,1,1,0,0,1-.37.46l-5.82,3.36V66.5l5.43-3.14a.29.29,0,0,1,.37,0,.62.62,0,0,1,.16.48V67a1.46,1.46,0,0,1-.16.66,1,1,0,0,1-.37.46l-5.43,3.13v6.48a1.46,1.46,0,0,1-.16.66.9.9,0,0,1-.37.45l-2.55,1.48a.29.29,0,0,1-.37,0,.66.66,0,0,1-.15-.48V60.48a1.58,1.58,0,0,1,.15-.66,1,1,0,0,1,.37-.45Z" style="fill:#fafafa"></path><path d="M345.31,47a.27.27,0,0,1,.37,0,.66.66,0,0,1,.16.48v3.18a1.6,1.6,0,0,1-.16.66,1,1,0,0,1-.37.45l-3.43,2V69.11a1.58,1.58,0,0,1-.15.66,1.12,1.12,0,0,1-.37.46l-2.55,1.47a.28.28,0,0,1-.37,0,.62.62,0,0,1-.16-.48V55.81l-3.43,2a.29.29,0,0,1-.37,0,.67.67,0,0,1-.15-.48V54.11a1.58,1.58,0,0,1,.15-.66,1.12,1.12,0,0,1,.37-.46Z" style="fill:#fafafa"></path></g></g></svg>