<svg xmlns="http://www.w3.org/2000/svg" xmlns:xlink="http://www.w3.org/1999/xlink" viewBox="0 0 500 500"><defs><clipPath id="freepik--clip-path--inject-2"><path d="M164.74,432.94c51.17,18.1,111.58,16.3,157.84-4.47,26.22-11.76,49.31-29.38,68.59-50.7L374,360.05H355l-8.41-26.92s-133.81-1.93-146-1.2-21.32,18-21.32,18l14.8,23.54-19.6,29.08Z" style="fill:#bfbfbf;stroke:#263238;stroke-miterlimit:10"></path></clipPath><clipPath id="freepik--clip-path-2--inject-2"><path d="M324.5,199.35s-25.85,1.14-31.94,20c0,0-11.63,6.55-8.07,16.83s6.72,21.52,6.72,21.52-2.1,14.88-1.31,22.53c0,0-4,9.78-2,11.87,0,0-4.42,3.51-4,4.48,2.95,7.36,48.17,15.46,59.37,7.25,3.41-2.5-13.22-44.68-11.62-46.81s8.31-21.23,7.52-24.4c0,0,7.51,2.33,7.51-13.27S335.74,197.25,324.5,199.35Z" style="fill:#92E3A9;stroke:#263238;stroke-linecap:round;stroke-linejoin:round"></path></clipPath></defs><g id="freepik--background-simple--inject-2"><path d="M67.93,167.09s-27.88,72,11.3,144.5S199.11,422.39,263.7,455.14s131.66,16.8,163.53-36.84-11.84-91.93-11.9-168.42,11.45-96.74-30-161.36-143.06-78.93-219.9-31S67.93,167.09,67.93,167.09Z" style="fill:#fff;opacity:0.7000000000000001"></path><path d="M401.55,85.78l-.56-.51c-51.57-46.43-120.06-48.53-170,1.46-26,26.05-72.19,21.07-105.23,30.49C11.88,149.71,31.58,304.27,87.85,379c50.78,67.42,160.81,82.66,234.73,49.48,65-29.15,110.7-94.27,127-162.37q2.44-10.23,4-20.67C462.12,187.46,445.67,125.9,401.55,85.78Z" style="fill:#92E3A9"></path><path d="M401.55,85.78l-.56-.51c-51.57-46.43-120.06-48.53-170,1.46-26,26.05-72.19,21.07-105.23,30.49C11.88,149.71,31.58,304.27,87.85,379c50.78,67.42,160.81,82.66,234.73,49.48,65-29.15,110.7-94.27,127-162.37q2.44-10.23,4-20.67C462.12,187.46,445.67,125.9,401.55,85.78Z" style="fill:#fff;opacity:0.7000000000000001"></path></g><g id="freepik--Clouds--inject-2"><path d="M66.77,151.71s3.11-10.8,24.07-10.86,33.26,18.93,33.26,18.93,8.79-8.27,19.42-2.75,10.59,13.65,10.59,13.65l87.3,7-189.77,0" style="fill:none;stroke:#263238;stroke-linecap:round;stroke-linejoin:round"></path><path d="M463.58,223.45s-3.11-10.81-24.08-10.87-33.25,18.94-33.25,18.94-8.79-8.27-19.42-2.75-10.59,8.65-10.59,8.65h-27.3" style="fill:none;stroke:#263238;stroke-linecap:round;stroke-linejoin:round"></path><path d="M34.56,218.2s3.11-10.8,24.08-10.86,33.25,18.94,33.25,18.94,8.79-8.27,19.42-2.75,10.59,8.64,10.59,8.64h27.3" style="fill:none;stroke:#263238;stroke-linecap:round;stroke-linejoin:round"></path><path d="M45.88,301.53l29.6-2s-4.22-8,5.29-17.51,19.15-3.17,19.15-3.17,9.32-28.88,36.52-25.49,30.06,27.13,30.06,27.13,5.81-5.83,17.65-2,13.63,18.49,10.7,24.66c0,0,13.48,2.37,14.38,12.78,0,0,.83-9.21,13.52-9.49s15.85,14,15.85,14h14.25" style="fill:none;stroke:#263238;stroke-linecap:round;stroke-linejoin:round"></path><path d="M435.05,121.3l-41.28-5.06s-1.21-11.82-13.9-11.23c0,0-2.8-11.47-16.45-14.94S342.65,101,342.65,101a18.5,18.5,0,0,0-14.27,2.18c-6.54,4.12-3.93,12-3.93,12l-72,7.22s105.77,2.41,173,.16" style="fill:none;stroke:#263238;stroke-linecap:round;stroke-linejoin:round"></path><path d="M393.82,278.92l-71.13-3.2c-7.82-23.66-37.4-13.77-37.4-13.77C274.09,237.42,248,249.11,248,249.11s-13.3-23.65-39.53-18.7-31.62,25.88-31.62,25.88l-18.11.69" style="fill:none;stroke:#263238;stroke-linecap:round;stroke-linejoin:round"></path><line x1="106.56" y1="260.28" x2="36.47" y2="262.15" style="fill:none;stroke:#263238;stroke-linecap:round;stroke-linejoin:round"></line></g><g id="freepik--Stone--inject-2"><path d="M423.89,331.88c-3.64,6.54-7.57,12.94-11.77,19.14-1.9,2.82-3.86,5.58-5.86,8.31h0q-5.37,7.25-11.25,14.08-1.87,2.2-3.83,4.35-4.46,4.94-9.18,9.58l-1.76,1.72a203.22,203.22,0,0,1-57.65,39.4c-39.5,17.74-89.33,21.64-134.91,11.13-2.67-.62-5.33-1.28-8-2q-2.91-.8-5.79-1.66-3.1-.93-6.17-2c-1-.33-2-.68-3-1-4.43-1.56-8.8-3.28-13.07-5.14l-1.42-.63A169.71,169.71,0,0,1,110,402.27" style="fill:none;stroke:#263238;stroke-miterlimit:10"></path><path d="M389.77,296.69s16.38,5.54,14,18.05C403.73,314.74,384.84,318.25,389.77,296.69Z" style="fill:#263238"></path><path d="M422.06,308.11s12.52-10.27,26,0C448,308.13,435,321.06,422.06,308.11Z" style="fill:#263238"></path><path d="M455.28,274.1s-3.46,25-23.87,12.69C431.41,286.79,442.94,270.71,455.28,274.1Z" style="fill:#263238"></path><path d="M431.55,253.72s15.1,13.85-1.37,24.91C430.18,278.63,420.5,265.31,431.55,253.72Z" style="fill:#263238"></path><path d="M404.56,270s19.49,2.88,15,20.48C419.6,290.47,400.4,286.41,404.56,270Z" style="fill:#263238"></path><path d="M404.72,334.34s-3.34-12.82,9.66-29.24,19.76-31.31,18.19-43.4" style="fill:none;stroke:#263238;stroke-linecap:round;stroke-linejoin:round"></path><path d="M409.6,276.3s10.25,7.4,11.16,20.12" style="fill:none;stroke:#263238;stroke-linecap:round;stroke-linejoin:round"></path><path d="M446.81,282.3s-8.85,7.31-19.76,3.52" style="fill:none;stroke:#263238;stroke-linecap:round;stroke-linejoin:round"></path><path d="M440.09,308.87s-19.56.64-26.37-2.91" style="fill:none;stroke:#263238;stroke-linecap:round;stroke-linejoin:round"></path><path d="M393.82,303.62s5.53,10.6,13.76,12.53" style="fill:none;stroke:#263238;stroke-linecap:round;stroke-linejoin:round"></path><path d="M431.68,273.76a32.71,32.71,0,0,0,.89-12.06" style="fill:none;stroke:#fff;stroke-linecap:round;stroke-linejoin:round"></path><path d="M409.6,276.3A29.79,29.79,0,0,1,418.68,288" style="fill:none;stroke:#fff;stroke-linecap:round;stroke-linejoin:round"></path><path d="M446.81,282.3A22.51,22.51,0,0,1,436,286.74" style="fill:none;stroke:#fff;stroke-linecap:round;stroke-linejoin:round"></path><path d="M440.09,308.87a130.58,130.58,0,0,1-14.4-.37" style="fill:none;stroke:#fff;stroke-linecap:round;stroke-linejoin:round"></path><path d="M393.82,303.62a34.45,34.45,0,0,0,7.15,9" style="fill:none;stroke:#fff;stroke-linecap:round;stroke-linejoin:round"></path><path d="M137.32,365.88s-15.36,7.94-11.08,19.94C126.24,385.82,145.44,386.45,137.32,365.88Z" style="fill:#263238"></path><path d="M107.12,382S93.19,373.76,81.44,386C81.44,386,96.31,396.77,107.12,382Z" style="fill:#263238"></path><path d="M69.16,353.41s7.17,24.16,25.51,8.95C94.67,362.36,80.85,348.2,69.16,353.41Z" style="fill:#263238"></path><path d="M89.55,329.69s-12.84,16,5.1,24.41C94.65,354.1,102.22,339.48,89.55,329.69Z" style="fill:#263238"></path><path d="M118.68,341.7s-18.83,5.79-11.79,22.52C106.89,364.22,125.26,357.32,118.68,341.7Z" style="fill:#263238"></path><path d="M128.38,406.87s1.2-14.7-14.12-29-24.25-28-24.52-40.16" style="fill:none;stroke:#263238;stroke-linecap:round;stroke-linejoin:round"></path><path d="M114.64,348.7s-9,8.87-8,21.57" style="fill:none;stroke:#263238;stroke-linecap:round;stroke-linejoin:round"></path><path d="M78.76,360.24s9.85,5.89,20.07.5" style="fill:none;stroke:#263238;stroke-linecap:round;stroke-linejoin:round"></path><path d="M89.4,385.49s19.44-2.31,25.64-6.84" style="fill:none;stroke:#263238;stroke-linecap:round;stroke-linejoin:round"></path><path d="M134.36,373.34s-3.78,11.63-11.63,14.78" style="fill:none;stroke:#263238;stroke-linecap:round;stroke-linejoin:round"></path><path d="M92.44,349.51a32.81,32.81,0,0,1-2.7-11.78" style="fill:none;stroke:#fff;stroke-linecap:round;stroke-linejoin:round"></path><path d="M114.64,348.7a29.84,29.84,0,0,0-7.21,12.95" style="fill:none;stroke:#fff;stroke-linecap:round;stroke-linejoin:round"></path><path d="M78.76,360.24A22.47,22.47,0,0,0,90.08,363" style="fill:none;stroke:#fff;stroke-linecap:round;stroke-linejoin:round"></path><path d="M89.4,385.49A127.92,127.92,0,0,0,103.58,383" style="fill:none;stroke:#fff;stroke-linecap:round;stroke-linejoin:round"></path><path d="M134.36,373.34a34.2,34.2,0,0,1-5.71,10" style="fill:none;stroke:#fff;stroke-linecap:round;stroke-linejoin:round"></path><path d="M359.91,364c12.17,6.1,17.92,18.18,20.32,25.06l1.76-1.72q4.72-4.65,9.18-9.58,1.95-2.14,3.83-4.35c.58-2.32,1.24-4.77,2-7.3.64-2.19,1.35-4.44,2.12-6.72.83-2.47,1.73-5,2.72-7.46.85-2.15,1.76-4.3,2.74-6.41s1.85-4.24,2.51-6.1c2.76-7.81,2.58-12.71,1.12-15.2-1.66-2.82-4.95-2.58-7.48,0a13.56,13.56,0,0,0-1.5,1.89h0a61.2,61.2,0,0,0-5.36,11.07c-2.59,6.59-4.48,13-4.48,13s2.95-21.58,2.12-33.12c-.59-8.1-1.45-15.36-3-20.51-1.73-5.59-4.33-8.69-8.4-7.68-5.68,1.41-2.94,15-1.14,33.38.63,6.39,1.14,13.37,1.14,20.62a129.92,129.92,0,0,1-.83,15.14s-.31-.51-.84-1.43c-2.71-4.71-11.31-20.25-14.57-33.78-3.89-16.16-14.7-9.38-11.24,5.09s17.72,22.76,23,38.48c0,0-18.24-17.49-24.28-10.84C347.89,359.29,356.28,362.19,359.91,364Z" style="fill:#92E3A9;stroke:#263238;stroke-linecap:round;stroke-linejoin:round"></path><path d="M359.91,364c12.17,6.1,17.92,18.18,20.32,25.06l1.76-1.72q4.72-4.65,9.18-9.58,1.95-2.14,3.83-4.35c.58-2.32,1.24-4.77,2-7.3.64-2.19,1.35-4.44,2.12-6.72.83-2.47,1.73-5,2.72-7.46.85-2.15,1.76-4.3,2.74-6.41s1.85-4.24,2.51-6.1c2.76-7.81,2.58-12.71,1.12-15.2-1.66-2.82-4.95-2.58-7.48,0a13.56,13.56,0,0,0-1.5,1.89h0a61.2,61.2,0,0,0-5.36,11.07c-2.59,6.59-4.48,13-4.48,13s2.95-21.58,2.12-33.12c-.59-8.1-1.45-15.36-3-20.51-1.73-5.59-4.33-8.69-8.4-7.68-5.68,1.41-2.94,15-1.14,33.38.63,6.39,1.14,13.37,1.14,20.62a129.92,129.92,0,0,1-.83,15.14s-.31-.51-.84-1.43c-2.71-4.71-11.31-20.25-14.57-33.78-3.89-16.16-14.7-9.38-11.24,5.09s17.72,22.76,23,38.48c0,0-18.24-17.49-24.28-10.84C347.89,359.29,356.28,362.19,359.91,364Z" style="fill-opacity:0.7000000000000001;stroke:#263238;stroke-miterlimit:10;opacity:0.2"></path><path d="M373,338.3a91,91,0,0,1,5.33,18.29,131.67,131.67,0,0,1,2,30.45l1.59.31q4.72-4.65,9.18-9.58,1.95-2.14,3.83-4.35,5.88-6.82,11.25-14.08h0c2-2.73,4-5.49,5.86-8.31-4.86,2.07-10.12,6-13,8.38-1.39,1.12-2.24,1.88-2.24,1.88a43.94,43.94,0,0,1,5-9.34c6.83-10,16.32-17.14,19.41-28.3,4-14.34-6.58-21.5-11.05-5.48-.56,2-1.24,4-2,6.07-5.33,14.3-14.67,28.57-14.67,28.57a173.45,173.45,0,0,0,5.68-26.67h0c3-21.41,2.41-42.34-4-42.45-4.93-.09-6.67,4.45-6.72,12.89a140.09,140.09,0,0,0,.88,14.62c1.76,17.69-3.26,43.15-3.26,43.15s-2.83-23.52-7.16-32.07a10,10,0,0,0-1.38-2.12C372.43,314.55,363.73,316.11,373,338.3Z" style="fill:#92E3A9;stroke:#263238;stroke-linecap:round;stroke-linejoin:round"></path><path d="M378,337.28c7.9,18.73,7.89,45.84,7.89,45.84s11.8-53.65,9.48-76.39" style="fill:none;stroke:#263238;stroke-linecap:round;stroke-linejoin:round"></path><path d="M413.76,327.24s-12.54,25.3-23.78,34.89" style="fill:none;stroke:#263238;stroke-linecap:round;stroke-linejoin:round"></path><path d="M387.45,375.49c1.8-2.79,5.49-6.16,9.53-9.37,3.12-2.47,6.44-4.85,9.27-6.78h0" style="fill:none;stroke:#263238;stroke-linecap:round;stroke-linejoin:round"></path><path d="M142.51,419l0,0q2,2.16,4.67,4.58c1.52,1.36,3,2.78,4.45,4.22,4.27,1.86,8.64,3.58,13.07,5.14,1,.35,2,.7,3,1q3.06,1,6.17,2,2.88.87,5.79,1.66c2.64.72,5.3,1.38,8,2A37.69,37.69,0,0,1,195.54,423c2.62-3.1,9.19-9.07,4.59-11.18-8.17-3.74-18,19.52-18,19.52-1.33-16.53,8.52-29.77,6-44.43s-15.12-16.64-12.33-.25c2.33,13.72.54,31.39-.1,36.79-.12,1.05-.21,1.64-.21,1.64a130.3,130.3,0,0,1-6.71-13.57v0c-2.86-6.66-5.13-13.28-7.07-19.4-5.59-17.62-8.41-31.18-14.19-30.24-4.14.68-5.31,4.55-4.7,10.37.57,5.36,2.63,12.37,5.28,20,3.72,10.76,14.64,29,15,29.6-.26-.31-4.41-5.29-9.22-10.17a61.7,61.7,0,0,0-9.29-8.06h0a14.57,14.57,0,0,0-2.12-1.15c-3.35-1.37-6.46-.3-6.88,2.95C135.14,408.29,136.9,412.87,142.51,419Z" style="fill:#92E3A9;stroke:#263238;stroke-linecap:round;stroke-linejoin:round"></path><path d="M142.51,419l0,0q2,2.16,4.67,4.58c1.52,1.36,3,2.78,4.45,4.22,4.27,1.86,8.64,3.58,13.07,5.14,1,.35,2,.7,3,1q3.06,1,6.17,2,2.88.87,5.79,1.66c2.64.72,5.3,1.38,8,2A37.69,37.69,0,0,1,195.54,423c2.62-3.1,9.19-9.07,4.59-11.18-8.17-3.74-18,19.52-18,19.52-1.33-16.53,8.52-29.77,6-44.43s-15.12-16.64-12.33-.25c2.33,13.72.54,31.39-.1,36.79-.12,1.05-.21,1.64-.21,1.64a130.3,130.3,0,0,1-6.71-13.57v0c-2.86-6.66-5.13-13.28-7.07-19.4-5.59-17.62-8.41-31.18-14.19-30.24-4.14.68-5.31,4.55-4.7,10.37.57,5.36,2.63,12.37,5.28,20,3.72,10.76,14.64,29,15,29.6-.26-.31-4.41-5.29-9.22-10.17a61.7,61.7,0,0,0-9.29-8.06h0a14.57,14.57,0,0,0-2.12-1.15c-3.35-1.37-6.46-.3-6.88,2.95C135.14,408.29,136.9,412.87,142.51,419Z" style="fill-opacity:0.7000000000000001;stroke:#263238;stroke-miterlimit:10;opacity:0.2"></path><path d="M123.28,410c6.76,8.45,17.3,11.51,27,17.15l1.42.63c4.27,1.86,8.64,3.58,13.07,5.14,1,.35,2,.7,3,1q3.06,1,6.17,2,2.88.87,5.79,1.66a129.1,129.1,0,0,1-4-14.16,91,91,0,0,1-2.3-18.92c-.18-24.06-8.79-22.07-11.27-14.93a10.58,10.58,0,0,0-.43,2.5c-.61,9.42,5.84,31.62,6,32.28-.45-.65-14.71-21.67-20-38.37a140.5,140.5,0,0,0-5-13.78c-3.37-7.74-6.75-11.23-11.25-9.2-5.9,2.64,1.85,22.09,13,40.61h0a174.1,174.1,0,0,0,15.71,22.27c-.43-.29-14.35-9.6-24.72-20.48-1.49-1.58-2.92-3.18-4.22-4.8C120.86,387.67,114,398.41,123.28,410Z" style="fill:#92E3A9;stroke:#263238;stroke-linecap:round;stroke-linejoin:round"></path><path d="M167.74,434c-.19-.29-.38-.58-.58-.87-4.2-6.4-9-13.9-13.36-21.4-5.86-10-11.06-20-13.37-27.42" style="fill:none;stroke:#263238;stroke-linecap:round;stroke-linejoin:round"></path><path d="M168.42,405.53c0,2,.12,4,.3,6v0a126.16,126.16,0,0,0,5.18,24.43" style="fill:none;stroke:#263238;stroke-linecap:round;stroke-linejoin:round"></path><path d="M131.56,410.39s21.5,18.32,35.6,22.71" style="fill:none;stroke:#263238;stroke-linecap:round;stroke-linejoin:round"></path><path d="M164.74,432.94c51.17,18.1,111.58,16.3,157.84-4.47,26.22-11.76,49.31-29.38,68.59-50.7L374,360.05H355l-8.41-26.92s-133.81-1.93-146-1.2-21.32,18-21.32,18l14.8,23.54-19.6,29.08Z" style="fill:#bfbfbf"></path><g style="clip-path:url(#freepik--clip-path--inject-2)"><path d="M214.37,343.62c18.35,2.77,47.57-4.74,47.57-4.74a146.3,146.3,0,0,0,48.77,4.74c17.91-1.3,26.09-6.91,29.58-10.58-26.65-.37-129.1-1.74-139.72-1.11a13.46,13.46,0,0,0-3,.53l8.52,2.56S196,340.85,214.37,343.62Z" style="fill-opacity:0.7000000000000001;opacity:0.30000000000000004"></path><path d="M355,360.05s-32.35,16.33-33.17,15.44-21.65-7.7-21.65-7.7L287,371.93l13.22-16.76,35.25-1.07,11.16-21Z" style="fill-opacity:0.7000000000000001;opacity:0.30000000000000004"></path><polygon points="173.75 404.77 194.05 417.3 234.64 404.09 194.05 373.5 174.45 402.58 173.75 404.77" style="fill-opacity:0.7000000000000001;opacity:0.30000000000000004"></polygon><path d="M202.62,442.51c41.31,6.59,84.74,1.77,120-14,26.22-11.76,49.31-29.38,68.59-50.7L374,360.05l-16.61,36H307.86L274.09,425.4l-45.9,2.14Z" style="fill-opacity:0.7000000000000001;opacity:0.30000000000000004"></path><polyline points="271.44 375.85 249.28 379.29 228.84 370.27 224.62 355.18 196.01 352.26 179.25 349.96" style="fill:none;stroke:#263238;stroke-linecap:round;stroke-linejoin:round"></polyline><polyline points="300.19 355.18 335.44 354.1 346.6 333.13" style="fill:none;stroke:#263238;stroke-linecap:round;stroke-linejoin:round"></polyline><polyline points="307.86 396.07 274.09 425.4 249.81 417.3 252.44 400.37 241.61 400.7" style="fill:none;stroke:#263238;stroke-linecap:round;stroke-linejoin:round"></polyline><polyline points="173.35 404.52 194.05 417.3 196.01 427.54" style="fill:none;stroke:#263238;stroke-linecap:round;stroke-linejoin:round"></polyline></g><path d="M164.74,432.94c51.17,18.1,111.58,16.3,157.84-4.47,26.22-11.76,49.31-29.38,68.59-50.7L374,360.05H355l-8.41-26.92s-133.81-1.93-146-1.2-21.32,18-21.32,18l14.8,23.54-19.6,29.08Z" style="fill:none;stroke:#263238;stroke-miterlimit:10"></path></g><g id="freepik--Character--inject-2"><path d="M341.59,298.91c2.55,23.21-4.22,34.29-17.09,39.3-14,5.44-34.48,3.9-50.79-.58-3-.84-54.75-19.47-62.93-33.18-6.78-11.38-7.67-22.54,6.86-23.32,6.93-.37,68.57,16.2,68.57,16.2l5.8-2.11Z" style="fill:#263238"></path><path d="M306.7,189a6.21,6.21,0,0,1,1.16,2,24.32,24.32,0,0,1,1.18,6.52,58.64,58.64,0,0,1,0,6.91l16.68-.63c-1.69-8.81,3.77-15.8,3.77-15.8C329.88,160.31,303.54,185.53,306.7,189Z" style="fill:#fff;stroke:#263238;stroke-linecap:round;stroke-linejoin:round"></path><path d="M324.5,199.35s-25.85,1.14-31.94,20c0,0-11.63,6.55-8.07,16.83s6.72,21.52,6.72,21.52-2.1,14.88-1.31,22.53c0,0-4,9.78-2,11.87,0,0-4.42,3.51-4,4.48,2.95,7.36,48.17,15.46,59.37,7.25,3.41-2.5-13.22-44.68-11.62-46.81s8.31-21.23,7.52-24.4c0,0,7.51,2.33,7.51-13.27S335.74,197.25,324.5,199.35Z" style="fill:#92E3A9"></path><g style="clip-path:url(#freepik--clip-path-2--inject-2)"><path d="M346.6,219.31c0,15.6-7.51,13.27-7.51,13.27.22.88-.14,3-.8,5.61a12.82,12.82,0,0,1-1.2-.77C326.74,230,329,208.78,305.4,209.7c0,0,8.58-6.19,16.44-4s14.49,9.92,16.82,9.81-1.31-3.43-1.57-5.14c-.21-1.32,4.71,1.58,8.74,2.3h0A27.29,27.29,0,0,1,346.6,219.31Z" style="fill-opacity:0.7000000000000001;opacity:0.2"></path><path d="M316.25,250s-2.28,26.88-27.56,33.6c.61-1.93,1.21-3.41,1.21-3.41-.79-7.65,1.31-22.53,1.31-22.53s-3.15-11.23-6.72-21.52c-.06-.17-.11-.34-.16-.51a16,16,0,0,0,8.63-5.9C298.44,222.56,316.25,250,316.25,250Z" style="fill-opacity:0.7000000000000001;opacity:0.2"></path><path d="M305.4,298.57A67.26,67.26,0,0,1,285,298h0a4.1,4.1,0,0,1-1.14-1.48c-.36-.9,3.4-4,4-4.43C292.58,294.34,300.58,297.82,305.4,298.57Z" style="fill-opacity:0.7000000000000001;opacity:0.2"></path></g><path d="M324.5,199.35s-25.85,1.14-31.94,20c0,0-11.63,6.55-8.07,16.83s6.72,21.52,6.72,21.52-2.1,14.88-1.31,22.53c0,0-4,9.78-2,11.87,0,0-4.42,3.51-4,4.48,2.95,7.36,48.17,15.46,59.37,7.25,3.41-2.5-13.22-44.68-11.62-46.81s8.31-21.23,7.52-24.4c0,0,7.51,2.33,7.51-13.27S335.74,197.25,324.5,199.35Z" style="fill:none;stroke:#263238;stroke-linecap:round;stroke-linejoin:round"></path><path d="M339.09,232.58c-5.14-1.71-5-18.85-14.59-23.07s-22.57.26-26.21,4.48" style="fill:none;stroke:#263238;stroke-linecap:round;stroke-linejoin:round"></path><path d="M226.08,276.49l-15.36,2.1-4.82,4-1.66,6.07s2.19-.66,3.79-4.42c0,0,1.88-1.16,3.77-2.47a23.59,23.59,0,0,0,8.8,1.28c3.44,0,4.26,3.66,8.7,2.53C237.2,283.52,226.08,276.49,226.08,276.49Z" style="fill:#fff;stroke:#263238;stroke-linecap:round;stroke-linejoin:round"></path><path d="M311.92,215.91c-11.67-4.22-24.13,24-36,39.49-1.71,2.24-34.81,14.24-45.89,18.19l-7.12,2.11s4.22,9.76,10.29,12.93l5.54-1.59s50.89-10.1,56.81-13.94c3-2,29-28.25,28.95-36.43" style="fill:#92E3A9;stroke:#263238;stroke-linecap:round;stroke-linejoin:round"></path><path d="M254.28,333.52c3.07-9.31-7.71-13-13.28-11.66s-13.17-1.18-19-.3-11.89,1.14-10.31,10.37S251,343.54,254.28,333.52Z" style="fill:#757575;stroke:#263238;stroke-linecap:round;stroke-linejoin:round"></path><path d="M233.85,323.23l-.72,2s-6.88-2.11-11.13-1-6.22.86-6.74,2.57-1.46,5.14,0,5.67,13.58,4,16.22,3.69l1.05,2.77" style="fill:none;stroke:#263238;stroke-linecap:round;stroke-linejoin:round"></path><line x1="227.56" y1="335.67" x2="227.56" y2="337.87" style="fill:none;stroke:#263238;stroke-linecap:round;stroke-linejoin:round"></line><line x1="222.68" y1="334.54" x2="222" y2="336.77" style="fill:none;stroke:#263238;stroke-linecap:round;stroke-linejoin:round"></line><line x1="217.44" y1="333.13" x2="216.44" y2="335.66" style="fill:none;stroke:#263238;stroke-linecap:round;stroke-linejoin:round"></line><line x1="214.48" y1="330.7" x2="212.49" y2="331.08" style="fill:none;stroke:#263238;stroke-linecap:round;stroke-linejoin:round"></line><line x1="215.26" y1="326.79" x2="213.48" y2="325.74" style="fill:none;stroke:#263238;stroke-linecap:round;stroke-linejoin:round"></line><line x1="218.23" y1="325.06" x2="217.44" y2="323.23" style="fill:none;stroke:#263238;stroke-linecap:round;stroke-linejoin:round"></line><line x1="223.3" y1="323.23" x2="223.3" y2="322.18" style="fill:none;stroke:#263238;stroke-linecap:round;stroke-linejoin:round"></line><line x1="228.19" y1="324.14" x2="228.84" y2="322.18" style="fill:none;stroke:#263238;stroke-linecap:round;stroke-linejoin:round"></line><path d="M241,323.16l.79,2.58s3-2.42,6.06-.68,3.17,4.37,2,7.4-6.85,3.2-6.85,3.2l-.79,2.21" style="fill:none;stroke:#263238;stroke-linecap:round;stroke-linejoin:round"></path><line x1="247.3" y1="336.77" x2="246.53" y2="335.02" style="fill:none;stroke:#263238;stroke-linecap:round;stroke-linejoin:round"></line><line x1="252.44" y1="333.13" x2="249.8" y2="332.46" style="fill:none;stroke:#263238;stroke-linecap:round;stroke-linejoin:round"></line><line x1="252.44" y1="327.11" x2="250.19" y2="327.59" style="fill:none;stroke:#263238;stroke-linecap:round;stroke-linejoin:round"></line><line x1="246.91" y1="323.23" x2="246.53" y2="324.47" style="fill:none;stroke:#263238;stroke-linecap:round;stroke-linejoin:round"></line><path d="M234.64,327.11s-2.37,2.91-.79,7.91" style="fill:none;stroke:#263238;stroke-linecap:round;stroke-linejoin:round"></path><path d="M241,327.59s1.45,4.51,0,6.8" style="fill:none;stroke:#263238;stroke-linecap:round;stroke-linejoin:round"></path><path d="M239.78,325.74a6.24,6.24,0,0,1-3.83-.68" style="fill:none;stroke:#263238;stroke-linecap:round;stroke-linejoin:round"></path><path d="M240.31,337.87a7,7,0,0,0-4.36,0" style="fill:none;stroke:#263238;stroke-linecap:round;stroke-linejoin:round"></path><path d="M228.84,326.79a52.83,52.83,0,0,0-.32,6.34" style="fill:none;stroke:#263238;stroke-linecap:round;stroke-linejoin:round"></path><path d="M223.3,326.26a33.84,33.84,0,0,0-.62,5.67" style="fill:none;stroke:#263238;stroke-linecap:round;stroke-linejoin:round"></path><path d="M218.23,326.79s-.58,3-.79,4.1" style="fill:none;stroke:#263238;stroke-linecap:round;stroke-linejoin:round"></path><path d="M245.73,327.11s-.08,2.59,0,5.35" style="fill:none;stroke:#263238;stroke-linecap:round;stroke-linejoin:round"></path><g style="opacity:0.30000000000000004"><path d="M303.62,307.24s-5,2.15-4.22,4.16,2.06,4.92,2.06,4.92-12.43,5.36-17.67,5.05-23.43-7.06-23.43-7.06v-8.54l-5.54-3.43s-3.26,11.34-2.95,15.82l5.06,4,2.11-5.07" style="fill:none;stroke:#fff;stroke-linecap:round;stroke-linejoin:round"></path><path d="M312,308.54s-6.86,9.69-8.37,10.68-14.18,4.71-18.73,4.63-22.94-6-22.94-6" style="fill:none;stroke:#fff;stroke-linecap:round;stroke-linejoin:round"></path><path d="M252.44,303.2c0-.6-10.83-3.76-10.83-3.76a41.86,41.86,0,0,1-1.3,10.88l-1.51,5.93s10.17,5.13,13.64,5.12" style="fill:none;stroke:#fff;stroke-linecap:round;stroke-linejoin:round"></path><path d="M237.87,305.57s-25.11-10.68-26.43-11.27a6.35,6.35,0,0,0-3.49,0" style="fill:none;stroke:#fff;stroke-linecap:round;stroke-linejoin:round"></path><path d="M240.31,310.32s-12.76-4.68-17.32-8-14.06-5.47-14.06-5.47" style="fill:none;stroke:#fff;stroke-linecap:round;stroke-linejoin:round"></path><path d="M327,315.26s7.52.2,10.29-1l1.78,7.1s-5.14,2.37-7.72,1.79-4.35-4.4-4.35-4.4" style="fill:none;stroke:#fff;stroke-linecap:round;stroke-linejoin:round"></path><path d="M325.44,320.41s-4.15,9.6-9.1,11.52c0,0,5.14,3.24,13.06,1.2,0,0,6.84-5.57,7.69-10.95" style="fill:none;stroke:#fff;stroke-linecap:round;stroke-linejoin:round"></path></g><path d="M307.86,191a24.32,24.32,0,0,1,1.18,6.52c5.52-3.45,4.43-6.52,4.43-6.52Z" style="fill:#263238"></path><path d="M328.63,188.69c20.49-23.25,5.18-35.82-7.09-36.78C294,149.77,303,172.64,301.42,174c-2.6,2.23-5.12,3-5.21,4.15-.13,1.72,2.66,3.89,2.66,3.89l-1,3.69.94.38s.29,9.82,2.77,9.82c7.41,0,11.82-2.39,12.77-4.66" style="fill:#fff;stroke:#263238;stroke-linecap:round;stroke-linejoin:round"></path><path d="M303.15,165.28a5.22,5.22,0,0,1,4.61,3.67" style="fill:none;stroke:#263238;stroke-linecap:round;stroke-linejoin:round"></path><path d="M303.45,173.3c-.08,1,.2,1.81.61,1.84s.82-.74.9-1.72-.2-1.8-.62-1.83S303.52,172.32,303.45,173.3Z" style="fill:#263238"></path><path d="M298.8,186.11s2.28.18,2.77-.77" style="fill:none;stroke:#263238;stroke-linecap:round;stroke-linejoin:round"></path><path d="M310.68,149.71s-6.88,0-10.71,5a9.63,9.63,0,0,0-.81,10.27l1.55-3.07s2.35,3.93,8.7,3.88l-1-4.6s2.32,5.12,6.69,6.7l-.63,8.09s3.07-3.33,6.25-1.36c6,3.7,4,13.54,4,13.54s5.24,3.09,9.92.79,17.81-17.94,6.8-32.57S312.38,148.26,310.68,149.71Z" style="fill:#263238"></path><path d="M317.36,174.4s5.8-5.14,7.6-1.18-.63,8-3.47,10.41-8.42,2.78-6-.47" style="fill:#fff;stroke:#263238;stroke-linecap:round;stroke-linejoin:round"></path><path d="M341.26,164.53s5.3-14,18.51-12c9.07,1.38,2.46,5.44,2.46,5.44s9.75,1.57,12.09,9.14c1.18,3.81-6.24.52-6.24.52s3.09,2.84,4,8.85c.63,4-3.88,3.56-10.79-3.46,0,0,.76,2.9,5.07,6s-6.83,4.71-12.59-2.71a5.28,5.28,0,0,1-1.85,4.56c-2.23,1.76-.76-5.81-7.6-8.35S341.26,164.53,341.26,164.53Z" style="fill:#263238"></path><g style="opacity:0.2"><path d="M307.86,152.33s-6.13,2.45-4.71,7.86" style="fill:none;stroke:#fff;stroke-linecap:round;stroke-linejoin:round"></path><path d="M309.42,153.26s-.6,7.12,7.12,9.89" style="fill:none;stroke:#fff;stroke-linecap:round;stroke-linejoin:round"></path><path d="M314.87,151.77s18.92-4,27,11.38" style="fill:none;stroke:#fff;stroke-linecap:round;stroke-linejoin:round"></path><path d="M318.69,168.4s13.67,5,24,0" style="fill:none;stroke:#fff;stroke-linecap:round;stroke-linejoin:round"></path><path d="M329,184.12s8.56-3.71,12.88-10.76" style="fill:none;stroke:#fff;stroke-linecap:round;stroke-linejoin:round"></path><path d="M346.6,163.15s9.39-6.44,16.82,1.19" style="fill:none;stroke:#fff;stroke-linecap:round;stroke-linejoin:round"></path><path d="M348.58,167.11s7.93-.35,8.76,6.25" style="fill:none;stroke:#fff;stroke-linecap:round;stroke-linejoin:round"></path></g><path d="M287.85,292.06s17,10.28,37.73,7.38" style="fill:none;stroke:#263238;stroke-linecap:round;stroke-linejoin:round"></path><path d="M324.5,245.64s-4.69,8.08-10.94,8.78" style="fill:none;stroke:#263238;stroke-linecap:round;stroke-linejoin:round"></path><path d="M331.57,257s-5.48,6.86-9.73,6.59" style="fill:none;stroke:#263238;stroke-linecap:round;stroke-linejoin:round"></path><path d="M228.19,274.14A20.87,20.87,0,0,0,236,284.57" style="fill:none;stroke:#263238;stroke-linecap:round;stroke-linejoin:round"></path><path d="M275.92,255.4s7.39,3.85,13.19-1" style="fill:none;stroke:#263238;stroke-linecap:round;stroke-linejoin:round"></path></g></svg>